# xmcd
#
# Track frame offsets: 
#        150
#        27005
#        46420
#        68520
#        93357
#        112430
#        133455
#        153070
#        187542
#        212842
#        241575
#
# Disc length: 3483 seconds
#
# Revision: 1
# Processed by: cddbd v1.5.2PL0 Copyright (c) Steve Scherf et al.
# Submitted via: ExactAudioCopy v0.99pb4
#
DISCID=8a0d990b
DTITLE=Big James - If It Wasnt 4 Da Blues
DYEAR=2001
DGENRE=Blues
TTITLE0=If It Wasnt 4 Da Blues
TTITLE1=Da Coldest Man I Ever Knew
TTITLE2=Never Loved Any 1 Like U
TTITLE3=Low Down Dirty Blues
TTITLE4=I Like Your Style
TTITLE5=8 Men, 4 Women
TTITLE6=Qalified 2 Satisfy
TTITLE7=Chains and Thangs
TTITLE8=A Happy Fool
TTITLE9=Da Best Love I Never Had
TTITLE10=Im Goin Home (2 Live With God)
EXTD=
EXTT0=
EXTT1=
EXTT2=
EXTT3=
EXTT4=
EXTT5=
EXTT6=
EXTT7=
EXTT8=
EXTT9=
EXTT10=
PLAYORDER=
